<svg width="107" height="95" viewBox="0 0 107 95" fill="none" xmlns="http://www.w3.org/2000/svg">
<circle cx="56.5" cy="15.5" r="3.5" fill="#F9AC06"/>
<circle cx="62.5" cy="22.5" r="3.5" fill="#F9AC06"/>
<circle cx="69.5" cy="28.5" r="3.5" fill="#F9AC06"/>
<circle cx="75.5" cy="34.5" r="3.5" fill="#F9AC06"/>
<circle cx="81.5" cy="40.5" r="3.5" fill="#F9AC06"/>
<circle cx="87.5" cy="47.5" r="3.5" fill="#F9AC06"/>
<circle cx="43.5" cy="40.5" r="3.5" fill="#F9AC06"/>
<circle cx="49.5" cy="47.5" r="3.5" fill="#F9AC06"/>
<circle cx="56.5" cy="53.5" r="3.5" fill="#F9AC06"/>
<circle cx="31.5" cy="40.5" r="3.5" fill="#F9AC06"/>
<circle cx="37.5" cy="47.5" r="3.5" fill="#F9AC06"/>
<circle cx="44.5" cy="53.5" r="3.5" fill="#F9AC06"/>
<circle cx="19.5" cy="40.5" r="3.5" fill="#F9AC06"/>
<circle cx="19.5" cy="53.5" r="3.5" fill="#F9AC06"/>
<circle cx="25.5" cy="47.5" r="3.5" fill="#F9AC06"/>
<circle cx="32.5" cy="53.5" r="3.5" fill="#F9AC06"/>
<circle cx="62.5" cy="59.5" r="3.5" fill="#F9AC06"/>
<circle cx="68.5" cy="65.5" r="3.5" fill="#F9AC06"/>
<circle cx="56.5" cy="65.5" r="3.5" fill="#F9AC06"/>
<circle cx="62.5" cy="72.5" r="3.5" fill="#F9AC06"/>
<circle cx="56.5" cy="78.5" r="3.5" fill="#F9AC06"/>
<circle cx="56.5" cy="28.5" r="3.5" fill="#F9AC06"/>
<circle cx="62.5" cy="35.5" r="3.5" fill="#F9AC06"/>
<circle cx="69.5" cy="41.5" r="3.5" fill="#F9AC06"/>
<circle cx="75.5" cy="47.5" r="3.5" fill="#F9AC06"/>
<circle cx="81.5" cy="53.5" r="3.5" fill="#F9AC06"/>
<circle cx="56.5" cy="40.5" r="3.5" fill="#F9AC06"/>
<circle cx="62.5" cy="47.5" r="3.5" fill="#F9AC06"/>
<circle cx="69.5" cy="53.5" r="3.5" fill="#F9AC06"/>
<circle cx="75.5" cy="59.5" r="3.5" fill="#F9AC06"/>
</svg>
